<?xml version="1.0" encoding="UTF-8"?>
<svg version="1.1" viewBox="0 0 2000 896" width="500" height="224" xmlns="http://www.w3.org/2000/svg">
<path transform="translate(862,156)" d="m0 0 11 2 9 5 9 9 10 13 11 14 12 15 11 14 13 16 11 14 9 11 22 28 13 16 10 13 11 14 26 32 8 10 10 13 11 14 11 13 13 17 10 12 7 14 2 8v12l-3 15-6 12-8 8-9 4-4 1-88 1h-24l-11-2-10-6-9-10-13-17-11-14-13-16-11-14-10-13-9-10-8-5-6-2h-12l-9 4-9 8-9 11-14 18-11 14-20 25-14 17-9 8-8 3-73 1h-41l-12-2-6-4-7-7-8-16-3-14 1-11 4-12 6-10 12-15 13-17 10-12 8-10 11-14 10-12 8-10 13-17 11-14 13-16 22-28 11-13 13-17 10-12 10-13 9-11 10-13 13-16 11-14 9-11 9-6z" fill="#FD9552"/>
<path transform="translate(1049,13)" d="m0 0h10l8 3 10 8 9 11 33 42 13 16 22 28 14 17 33 42 10 12 22 28 12 15 22 28 13 16 11 14 9 11 11 14 20 25 13 16 11 14 13 16 11 14 14 18 13 16 13 18 5 11 2 7v15l-3 11-6 12-8 9-9 4-3 1-64 1h-52l-8-2-6-3-8-7-10-13-14-18-11-13-11-14-14-18-13-16-10-13-22-28-11-13-9-12-11-13-12-16-20-25-13-16-11-14-9-11-11-14-14-18-9-11-22-28-11-13-11-14-9-13-4-8-2-8v-17l2-9 6-12 14-18 8-10 14-17 10-13 8-10 7-8 11-6z" fill="#FD9653"/>
<path transform="translate(684,627)" d="m0 0h32l1 1v93h56v21h2l3-9 15-34 13-30 12-28 6-13 15-1h16l4 4 19 43 13 30 12 28 6 13v2l-30 1-5-1-8-22-51-1-3 9-5 14h-123l-1-45v-74zm155 35-8 21-6 14v2h30l-1-5-9-23-3-8z" fill="#120F0E"/>
<path transform="translate(390,628)" d="m0 0h28l8 13 27 45 5 9h2l15-26 10-17 13-22 2-2h27v119h-30l-1-24v-35l-1-2-10 18-10 17-8 13-1 1h-14l-4-4-15-25-10-16v-2l-2 1v58h-31z" fill="#110F0F"/>
<path transform="translate(197,628)" d="m0 0h34v44l45 1v-45h33l1 2v117h-34v-46l-45-1v47h-33l-1-2z" fill="#191311"/>
<path transform="translate(1671,628)" d="m0 0h34v44l45 1v-45h33l1 1v117l-1 1h-33v-47l-45 1v46h-34z" fill="#0E0B0B"/>
<path transform="translate(1520,627)" d="m0 0 6 1v25l-5 1h-54v20l52 1v24l-3 1h-48l-1 5-1 16h61l1 1v25h-94v-119z" fill="#0F0C0C"/>
<path transform="translate(591,627)" d="m0 0h29l4 4 9 20 18 42 14 32 9 21v1l-32 1-4-4-7-18v-2l-51 1-7 20-1 2h-34l1-5 12-27 13-30 14-32 8-19 3-6zm14 35-4 8-10 25v4h29l-1-5-8-21-4-10z" fill="#120F0F"/>
<path transform="translate(1076,627)" d="m0 0h29l3 2 7 17 15 34 13 30 10 23 5 12v2l-32 1-3-2-8-21-51-1-2 8-5 14-4 2-31-1 2-6 9-20 18-42 20-46 2-5zm13 34-8 20-6 16v2h30l-7-20-7-17z" fill="#120F0E"/>
<path transform="translate(1203,625)" d="m0 0h21l17 3 15 6-1 6-7 19-2 1-16-6-8-2h-16l-7 3-3 3v6l4 4 11 4 24 6 12 5 9 8 5 10 1 4v9l-3 10-6 9-8 7-8 4-9 3-8 1h-24l-16-3-13-5-6-4 1-6 6-14 1-4 6 1 16 6 9 2h20l7-4 1-7-5-5-19-5-18-5-12-6-7-7-4-8-1-3v-15l5-12 7-8 10-6 12-4z" fill="#161312"/>
<path transform="translate(1600,623)" d="m0 0h10l17 3 12 5 11 8 5 5-1 4-15 14-3 3-4-2-7-6-9-4-4-1h-11l-10 3-7 5-6 9-3 10v14l4 11 6 8 8 5 10 3h8l10-3 9-6 4-4 4 2 16 15 1 4-10 9-16 8-14 3h-21l-13-3-14-7-10-9-7-8-7-15-2-8v-24l4-13 5-10 8-10 12-9 11-5 12-3z" fill="#151111"/>
<path transform="translate(905,627)" d="m0 0h33l3 3 17 29 6 10 2 5 4-4 15-26 8-13 4-4h30l-1 4-14 24-13 22-15 25-1 2-1 43h-33l-1-43-6-11-17-29-14-24-7-11z" fill="#131010"/>
<path transform="translate(1359,627)" d="m0 0h60l2 1v25l-1 1h-35v93h-33l-1-75 1-18h-36l-1-2v-24z" fill="#110D0D"/>
<path transform="translate(333,628)" d="m0 0h33l1 9v110h-33l-1-1z" fill="#1F1714"/>
<path transform="translate(1136,811)" d="m0 0 5 2 8 9 11 14 12 15 6 8v-47l5-1 2 1v59l-5 1-9-10-15-20-12-15-3-3 1 8v13l-1 27h-5l-1-1v-59z" fill="#5D4F48"/>
<path transform="translate(536,811)" d="m0 0h15l16 1 11 4 5 4 6 10 2 6v11l-4 11-7 8-8 4-4 1-14 1h-18l-1-1v-59zm6 6-1 1v48h25l9-4 5-5 3-4 1-3v-16l-4-8-6-5-6-3-7-1z" fill="#534841"/>
<path transform="translate(1343,812)" d="m0 0h14l11 4 6 5 6 10 1 3v14l-4 10-7 8-7 4-4 1h-18l-10-4-7-7-4-8-1-4v-13l4-10 8-8 8-4zm-1 6-8 4-6 7-2 5-1 12 3 9 7 7 10 4h11l10-5 7-8 2-8v-7l-3-9-6-7-8-4z" fill="#5B4F48"/>
<path transform="translate(1223,812)" d="m0 0h13l11 4 8 7 5 10 1 5v7l-3 10-4 6-8 7-7 3h-18l-9-3-6-5-6-10-2-7v-9l3-9 7-9 8-5zm-1 6-8 4-7 8-2 6v13l4 8 7 6 9 3h10l10-4 7-8 2-6v-13l-4-8-8-7-5-2z" fill="#594E48"/>
<path transform="translate(1067,811)" d="m0 0h5l1 1v26h25l11 1 1-27 5-1 1 1v60h-5l-1-1v-27h-37v27l-5 1-1-1-1-26v-33z" fill="#58473E"/>
<path transform="translate(1414,812)" d="m0 0h14l11 4 3 4v4l-5-1-9-4h-15l-8 4-6 8-2 6v11l5 10 5 4 9 3h11l7-3 1-1 1-18 1-2 5 1 1 2v18l-5 6-8 3h-19l-7-3-8-7-5-8-1-3v-17l5-9 4-5 8-5z" fill="#584D47"/>
<path transform="translate(788,811)" d="m0 0 5 1 13 27 9 21 4 9v3h-5l-4-6-5-10h-31l-5 10-2 5-6 1-1-3 6-12 11-25 6-13zm1 9-6 12-7 16v2l24 1 3-1-1-5-10-23-1-2z" fill="#5D524D"/>
<path transform="translate(649,812)" d="m0 0h15l10 4 3 3v5l-5-1-8-4h-16l-8 5h-2l-2 4-3 7v14l4 8 6 5 9 3h11l7-2 1-3 1-18 5-1 1 1v21l-5 5-7 3h-19l-8-3-7-6-5-8-2-8v-9l3-9 6-8 8-6z" fill="#4F4642"/>
<path transform="translate(950,812)" d="m0 0h41l-1 5-33 1v19l1 1 29 1v5l-30 1v20l34 1 1 5-1 1h-41z" fill="#3E332E"/>
<path transform="translate(1024,812)" d="m0 0h16l9 4 4 5v3l-5-1-9-4h-15l-8 4-4 5-3 7-1 9 2 8 4 6 6 5 6 2h12l9-4 5-2 1 3-5 6-7 3h-19l-10-5-7-8-4-10v-13l4-9 3-5 10-7z" fill="#5F554F"/>
<path transform="translate(718,811)" d="m0 0 42 1v5l-20 1-1 53-1 1h-5l-1-1-1-53-19-1v-5z" fill="#464444"/>
<path transform="translate(1452,811)" d="m0 0 6 1 17 28 3 4 9-15 10-16 2-2 5 1-6 11-10 16-6 11-1 6v12l-1 4h-5l-1-1-1-21-9-16-12-20z" fill="#60554F"/>
<path transform="translate(829,812)" d="m0 0h7v54h32l2 5-2 1h-38l-1-7z" fill="#67554B"/>
<path transform="translate(1276,811)" d="m0 0 5 1v54h31l2 2v3l-2 1h-37l-1-1v-59z" fill="#615650"/>
<path transform="translate(892,812)" d="m0 0h48l1 4-1 1-20 1-1 53-1 1h-5l-1-3v-51l-20-1z" fill="#38281F"/>
<path transform="translate(609,811)" d="m0 0 2 1v59l-4 1-2-1-1-59z" fill="#5C3C28"/>
<path transform="translate(695,812)" d="m0 0h6v60h-5l-1-1z" fill="#58463C"/>
<path transform="translate(999,310)" d="m0 0 5 5 13 16 11 14 9 11 13 16 4 5-1 2-8-9-11-14-10-12-4-5v-2h-2l-15-20-4-5z" fill="#FEFEFE"/>
<path transform="translate(1264,261)" d="m0 0 5 4 10 13 13 16 4 5v2h-2l-10-13-13-16-7-9z" fill="#FEFEFE"/>
<path transform="translate(673,841)" d="m0 0 5 1v21l-5 5-7 3h-6v-1l10-3 5-3 1-2v-18l-3-1v17h-1v-18z" fill="#FDDFCB"/>
<path transform="translate(1416,816)" d="m0 0h10l10 4 4 2 1-3 1 5-5-1-9-4h-15l-5 1 1-2z" fill="#FDEFE6"/>
<path transform="translate(989,812)" d="m0 0h2l-1 5-34 1v-2l32-1z" fill="#FDF6F2"/>
<path transform="translate(645,813)" d="m0 0 3 1-8 4-10 10v-3l6-7 6-4z" fill="#C3A897"/>
<path transform="translate(1037,18)" d="m0 0 2 1-14 14v-3l9-10z" fill="#FDDFCC"/>
<path transform="translate(1564,636)" d="m0 0 2 1-13 13v-3l7-8z" fill="#B9A294"/>
<path transform="translate(939,812)" d="m0 0 2 1-1 4h-20v-1l19-1z" fill="#FDF3EC"/>
<path transform="translate(1212,816)" d="m0 0 2 1-10 10v-3l5-6z" fill="#B09788"/>
</svg>
